<?xml version="1.0" encoding="utf-8" ?><svg xmlns="http://www.w3.org/2000/svg" xmlns:xlink="http://www.w3.org/1999/xlink" width="190" height="212" viewBox="0 0 190 212"><path fill="white" d="M0 0L190 0L190 211.562C189.744 211.717 189.486 211.842 189.191 211.906C186.819 212.423 180.775 212.005 177.969 212.006L148.722 212.009L32.4972 212.006C28.9483 212.006 1.53486 212.53 0 211.562L0 0Z"/><path fill="#503A38" d="M92.7622 47.4329C94.7814 43.3497 96.5071 39.18 97.7684 34.7967C98.8846 30.9174 98.1975 20.6136 102.82 19.0694C103.902 18.7078 105.014 19.0522 105.982 19.5684C107.683 20.4755 108.559 21.9012 109.096 23.6954C111.08 30.3184 109.605 40.5175 106.275 46.5694L106.185 46.7305C120.585 47.7983 132.081 50.7374 141.928 62.1545C144.773 65.454 146.172 68.3774 147.46 72.4829C149.524 69.8546 152.367 65.5887 155.947 65.1419C156.918 65.0206 157.896 65.2125 158.674 65.8261C160.176 67.0105 160.72 69.4355 160.899 71.2497C161.52 77.5735 157.403 84.6552 153.453 89.3843C153.157 89.7384 152.841 90.0745 152.505 90.3907C153.99 98.5202 151.648 107.143 149.628 114.968C151.697 118.702 152.842 122.53 151.644 126.772C151.081 128.766 150.095 130.52 148.734 132.074C151.059 133.836 153.377 135.675 155.868 137.197C158.542 138.83 161.718 140.188 164.087 142.242C164.848 142.901 165.581 143.754 165.712 144.79C165.801 145.497 165.572 146.185 165.114 146.724C162.813 149.429 147.32 155.153 143.301 156.627C143.159 158.136 142.939 159.685 142.974 161.201C143.1 162.248 143.079 163.354 143.119 164.41C143.828 164.437 144.541 164.475 145.245 164.565C149.857 165.153 156.726 166.965 159.647 170.764C161.008 172.534 161.85 175.18 161.558 177.412C161.135 180.634 158.843 183.357 156.344 185.27C154.192 186.919 151.738 188.131 149.211 189.09C143.095 191.411 136.55 192.731 130.192 194.222C122.039 196.133 113.817 198.238 105.465 199.038C99.5209 199.608 93.1532 199.587 87.2235 198.804C74.0506 197.063 40.5485 191.99 32.704 181.642C31.2892 179.776 30.5983 177.504 30.9328 175.163C31.6204 170.35 37.0343 167.7 41.1352 166.306C42.291 165.913 44.1983 165.576 45.1372 164.833C45.6598 164.42 45.4536 160.293 45.5346 159.383C45.5498 156.03 45.2613 152.588 45.7115 149.262C41.4109 146.72 27.4166 137.595 26.2982 133.18C26.0918 132.366 26.1821 131.559 26.6306 130.841C28.2948 128.177 41.4614 124.697 44.9618 123.392C42.3131 117.354 42.7118 112.675 45.0544 106.684C45.6705 105.108 46.3516 103.489 47.2784 102.068C48.4032 100.343 50.0135 98.719 50.7336 96.7796C51.8764 93.7015 52.0488 87.9259 53.2774 83.9527C57.1489 71.4328 69.2871 55.8034 81.4292 50.5079C85.0519 48.928 88.8524 47.9634 92.7622 47.4329Z"/><path fill="#E9E8E7" d="M45.5346 159.383C45.9866 163.464 44.7397 168.265 48.392 171.194C51.8149 173.94 56.2791 175.869 60.1079 178.043C68.2661 182.675 78.6599 189.658 88.1805 190.739C90.3512 190.986 92.6836 190.756 94.8537 190.515C103.984 189.501 136.285 180.446 141.493 173.784C143.787 170.85 142.208 164.766 142.974 161.201C143.1 162.248 143.079 163.354 143.119 164.41C143.828 164.437 144.541 164.475 145.245 164.565C149.857 165.153 156.726 166.965 159.647 170.764C161.008 172.534 161.85 175.18 161.558 177.412C161.135 180.634 158.843 183.357 156.344 185.27C154.192 186.919 151.738 188.131 149.211 189.09C143.095 191.411 136.55 192.731 130.192 194.222C122.039 196.133 113.817 198.238 105.465 199.038C99.5209 199.608 93.1532 199.587 87.2235 198.804C74.0506 197.063 40.5485 191.99 32.704 181.642C31.2892 179.776 30.5983 177.504 30.9328 175.163C31.6204 170.35 37.0343 167.7 41.1352 166.306C42.291 165.913 44.1983 165.576 45.1372 164.833C45.6598 164.42 45.4536 160.293 45.5346 159.383Z"/><path fill="white" d="M98.9035 52.3551C106.078 51.2817 118.777 53.384 125.483 56.3231C131.29 58.8686 137.418 63.8273 140.469 69.5306C141.136 70.7775 141.458 72.2059 141.978 73.5171C142.866 75.7565 144.008 76.5023 146.126 77.4234C150.527 75.5922 152.666 70.775 156.008 69.1863L156.446 69.4012C156.681 70.043 156.762 70.7164 156.82 71.3937C157.381 77.8997 151.692 84.6699 147.773 89.3497C148.273 98.5894 146.521 106.131 144.394 115.051C145.903 117.4 147.336 119.927 147.465 122.783C147.588 125.517 146.465 128.065 144.629 130.054C139.91 135.168 131.92 136.004 125.345 136.24C121.628 139.846 117.031 141.065 112.063 141.902C100.517 143.39 87.2816 140.945 77.8389 133.959C79.7307 133.446 81.3007 132.718 82.983 131.711C74.6722 130.629 61.0022 130.166 53.7693 126.139C51.1522 124.682 49.0241 122.544 48.2027 119.603C46.9648 115.17 49.2081 106.149 52.3958 102.947C53.3022 102.037 55.3942 101.882 55.955 100.898C55.955 99.9977 55.2923 99.2266 54.8107 98.5057C57.3781 84.6045 60.4422 77.0423 69.8091 66.2161C78.1412 56.5859 86.5423 53.2564 98.9035 52.3551Z"/><path fill="#503A38" d="M103.507 67.9929C104.67 67.9294 105.705 68.3139 106.626 69.0169C108.514 70.4579 109.28 72.8933 109.581 75.1591C110.104 79.0822 109.311 86.7122 106.773 89.9379C106.225 90.6348 105.695 90.9916 104.813 91.0851C104.5 91.0156 104.208 90.9285 103.961 90.7155C103.554 90.3646 103.017 89.5677 102.92 89.0406C102.666 87.6529 104.587 82.217 104.928 80.309C105.241 78.5612 105.304 76.9668 105.22 75.1933C105.147 74.5742 105.104 74.0189 104.787 73.4681C102.936 73.0211 98.7708 85.7055 96.1408 87.3103C95.4823 87.3986 95.3712 87.3733 94.8068 87.0229C94.7262 86.8148 94.6676 86.6045 94.6901 86.3798C95.1199 82.0966 100.212 70.7569 103.507 67.9929Z"/><path fill="#CAA677" d="M94.3945 147.703L94.6788 148.02C95.1154 152.788 94.4635 181.716 93.1106 184.776C92.8535 185.358 92.462 185.708 91.8589 185.91C85.6582 187.984 63.7625 174.11 57.3917 170.807C55.0211 169.593 52.501 168.474 50.3337 166.92C49.524 162.892 49.4616 155.563 49.1966 151.188C54.4602 154.378 61.9212 157.77 67.9469 159.029C69.1378 159.278 70.3908 159.437 71.5892 159.15C75.3268 158.257 90.8415 150.05 94.3945 147.703Z"/><path fill="#CAA677" d="M97.8058 147.583C99.5395 148.255 101.692 150.96 103.06 152.291C106.714 155.845 113.029 162.224 117.551 164.159C121.789 164.025 133.975 159.748 138.475 158.118C137.891 162.431 138.039 167.03 137.726 171.392L132.081 174.422C122.365 179.747 108.755 182.955 97.9745 185.685C99.7821 177.883 98.2895 166.811 97.9346 158.702C97.7723 154.994 97.9843 151.286 97.8058 147.583Z"/><path fill="#CAA677" d="M46.478 126.226C47.0657 126.842 47.6752 127.437 48.3055 128.009C55.0565 134.091 66.0957 135.378 74.8554 134.922C75.0876 135.583 75.4101 136.257 75.8008 136.839C78.8373 141.361 86.0325 143.897 91.1222 144.842C85.1556 147.979 79.0222 150.755 73.075 153.911L70.3801 155.174C53.8817 150.776 43.2413 142.459 29.9379 132.614C35.4184 130.585 41.3968 129.157 46.478 126.226Z"/><path fill="#CAA677" d="M145.447 135.485C146.482 135.677 148.188 137.667 149.152 138.367C152.593 140.866 156.159 142.865 159.92 144.835C155.135 146.345 150.515 148.716 145.816 150.519C142.703 151.713 120.042 159.297 118.744 159.228C118.553 159.218 118.271 159.106 118.08 159.057C112.984 155.17 108.186 150.812 103.217 146.753C105.195 147.029 107.141 147.053 109.133 146.92C115.488 146.498 123.293 144.878 127.643 139.916C133.747 140.87 140.385 138.851 145.447 135.485Z"/><path fill="white" d="M103.563 23.0489L104.245 23.247C104.537 23.5268 104.763 23.8148 104.924 24.1887C106.377 27.5656 105.031 35.7325 104.043 39.1815C103.307 41.7538 102.239 44.2398 101.241 46.7191L98.604 46.7901C97.9841 46.8928 97.4533 46.9435 96.8277 46.8701L96.6945 46.5376C98.6797 42.3343 100.501 38.3971 101.465 33.8203C102.208 30.2918 102.056 26.3578 103.563 23.0489Z"/><path fill="#503A38" d="M154.716 114.761C154.741 114.77 154.767 114.78 154.792 114.79C154.94 114.843 155.079 114.897 155.216 114.973C156.313 115.588 157.13 117.565 157.469 118.726C158.506 122.277 158.642 127.021 156.831 130.327C156.081 130.435 155.545 130.562 154.894 130.163C154.658 128.566 155.923 126.498 155.923 124.74C155.922 122.129 154.46 116.546 154.675 114.992C154.685 114.914 154.701 114.838 154.716 114.761Z"/><path fill="#503A38" d="M40.7167 103.396C40.9304 103.528 40.9591 103.626 41.076 103.843C40.4261 105.295 39.5171 106.939 39.2074 108.497C38.7781 110.656 39.0275 113.407 38.185 115.41C38.0699 115.318 38.0751 115.325 37.9533 115.21C37.2265 114.524 37.1354 113.216 37.1457 112.271C37.1792 109.172 38.491 105.58 40.7167 103.396Z"/><path fill="#503A38" d="M160.033 117.416C160.121 117.447 160.164 117.46 160.254 117.504C161.089 117.907 161.647 119.286 161.934 120.136C162.615 122.155 162.738 124.474 161.793 126.405C161.458 126.681 161.203 126.782 160.779 126.873C160.307 126.169 160.012 118.801 160.033 117.416Z"/><path fill="#503A38" d="M34.3176 104.149C34.4835 104.326 34.5645 104.537 34.6694 104.753C34.3545 106.843 34.1708 109.473 33.4207 111.435C33.2114 111.982 33.0678 111.995 32.5633 112.218L31.6089 109.618C32.1115 107.466 32.6789 105.714 34.3176 104.149Z"/></svg>